<svg width="72" height="61" viewBox="0 0 72 61" fill="none" xmlns="http://www.w3.org/2000/svg">
<path fill-rule="evenodd" clip-rule="evenodd" d="M14.9546 0C10.8464 0 7.80651 3.82107 7.94259 7.96501C8.07315 11.9462 7.90353 17.1023 6.68196 21.3072C5.45676 25.5244 3.3846 28.1959 0 28.5389V32.4111C3.3846 32.7541 5.45676 35.4256 6.68196 39.643C7.90353 43.8477 8.07315 49.0039 7.94259 52.9851C7.80651 57.1285 10.8464 60.95 14.9552 60.95H57.0507C61.1592 60.95 64.1985 57.1292 64.0623 52.9851C63.9318 49.0039 64.1013 43.8477 65.3229 39.643C66.5487 35.4256 68.6154 32.7541 72 32.4111V28.5389C68.6154 28.1959 66.5487 25.5244 65.3229 21.3072C64.1013 17.103 63.9318 11.9462 64.0623 7.96501C64.1985 3.8217 61.1592 0 57.0507 0H14.9546ZM48.8136 37.5186C48.8136 43.2247 44.8083 46.6853 38.1618 46.6853H26.8475C26.5238 46.6853 26.2134 46.5485 25.9846 46.3053C25.7557 46.0621 25.6271 45.7324 25.6271 45.3884V15.5618C25.6271 15.2178 25.7557 14.888 25.9846 14.6448C26.2134 14.4015 26.5238 14.2649 26.8475 14.2649H38.0973C43.6392 14.2649 47.2764 17.4551 47.2764 22.3531C47.2764 25.7909 44.8299 28.8689 41.7123 29.4077V29.5875C45.9561 30.0822 48.8136 33.2049 48.8136 37.5186ZM36.9282 18.3758H30.4767V28.0591H35.9103C40.1106 28.0591 42.4269 26.2617 42.4269 23.0489C42.4269 20.0383 40.4352 18.3758 36.9282 18.3758ZM30.4767 31.9016V42.5731H37.1655C41.5386 42.5731 43.8552 40.7081 43.8552 37.2036C43.8552 33.6984 41.4738 31.901 36.8841 31.901L30.4767 31.9016Z" fill="black"/>
</svg>
