<svg width="65" height="61" viewBox="0 0 65 61" fill="none" xmlns="http://www.w3.org/2000/svg">
<path d="M32.135 47.6954H33.7101C34.8313 47.6954 35.8872 47.1976 36.5653 46.3481L46.5564 33.8439L56.5475 46.3481C57.2256 47.1963 58.2815 47.6954 59.4027 47.6954H60.9778L48.2316 31.7462L60.4065 16.5081H58.8314C57.7101 16.5081 56.6543 17.0058 55.9762 17.8554L46.5551 29.6471L37.1326 17.8541C36.4545 17.0058 35.3986 16.5081 34.2774 16.5081H32.7023L44.8772 31.7462L32.135 47.6954Z" fill="black"/>
<path d="M32.5396 33.0159V29.2064C32.5396 20.7302 24.6041 14.0178 15.4152 15.4261C8.26191 16.5219 3.17358 22.6756 3.17358 29.567V30.4762V33.0159V33.1962C3.17358 41.5175 9.55002 48.1626 17.6804 48.254C24.4773 48.3302 30.213 44.0076 31.9723 38.0965H30.6001C29.7725 38.0965 29.0224 38.5473 28.6633 39.2559C26.342 43.821 20.936 46.6997 15.0108 45.4045C9.54868 44.2096 5.84322 39.341 5.84322 34.0102V33.0159H32.5396ZM5.84322 30.108C5.84322 24.1295 9.58606 19.2419 15.0855 18.0724C22.9262 16.4064 29.87 22.0343 29.87 29.2064V30.4762H5.84322V30.108Z" fill="black"/>
</svg>
