<svg width="65" height="61" viewBox="0 0 65 61" fill="none" xmlns="http://www.w3.org/2000/svg">
<path d="M23.9817 2.43799C17.9815 2.43799 13.0896 7.09173 13.0896 12.7999C13.0896 16.8231 15.5883 20.2274 19.1238 21.9428C15.5883 23.6581 13.0896 27.0624 13.0896 31.0856C13.0896 35.1088 15.5883 38.5131 19.1238 40.2285C15.5883 41.9438 13.0896 45.3481 13.0896 49.3713C13.0896 55.0795 17.9815 59.7332 23.9817 59.7332C29.982 59.7332 34.8738 55.0795 34.8738 49.3713V40.2285V36.1523C36.5927 39.2553 39.9125 41.4475 43.8438 41.4475C49.4904 41.4475 54.0952 37.0668 54.0952 31.6951C54.0952 27.28 50.9252 23.6844 46.682 22.4904C50.9603 21.0915 54.0952 17.335 54.0952 12.7999C54.0952 7.09173 49.2034 2.43799 43.2031 2.43799H33.5924H23.9817ZM23.9817 4.87608H32.311V20.7237H23.9817C19.3666 20.7237 15.6525 17.1903 15.6525 12.7999C15.6525 8.40947 19.3666 4.87608 23.9817 4.87608ZM34.8738 4.87608H43.2031C47.8182 4.87608 51.5324 8.40947 51.5324 12.7999C51.5324 17.1903 47.8182 20.7237 43.2031 20.7237H34.8738V4.87608ZM23.9817 23.1618H32.311V39.0094H23.9817C19.3666 39.0094 15.6525 35.476 15.6525 31.0856C15.6525 26.6952 19.3666 23.1618 23.9817 23.1618ZM34.8738 23.1618H39.1586C37.3199 24.0836 35.8428 25.4888 34.8738 27.238V23.1618ZM43.8438 24.3808C48.1053 24.3808 51.5324 27.6411 51.5324 31.6951C51.5324 35.7491 48.1053 39.0094 43.8438 39.0094C39.5824 39.0094 36.1553 35.7491 36.1553 31.6951C36.1553 27.6411 39.5824 24.3808 43.8438 24.3808ZM23.9817 41.4475H32.311V49.3713C32.311 53.7617 28.5968 57.2951 23.9817 57.2951C19.3666 57.2951 15.6525 53.7617 15.6525 49.3713C15.6525 44.9809 19.3666 41.4475 23.9817 41.4475Z" fill="black"/>
</svg>
