<svg width="65" height="61" viewBox="0 0 65 61" fill="none" xmlns="http://www.w3.org/2000/svg">
<path d="M63.1427 27.7604L35.1691 1.1497C33.5589 -0.383233 30.9461 -0.383233 29.3337 1.1497L23.5254 6.67621L30.8938 13.6859C32.6062 13.1358 34.57 13.505 35.9345 14.8034C37.3073 16.1099 37.6921 17.9941 37.0989 19.629L44.2009 26.3845C45.9195 25.821 47.901 26.1853 49.2737 27.493C51.1912 29.3166 51.1912 32.2728 49.2737 34.0979C47.3549 35.9231 44.248 35.9231 42.3283 34.0979C40.8862 32.7247 40.5293 30.7086 41.2607 29.0181L34.6367 22.7171V39.298C35.1038 39.5183 35.545 39.8116 35.9345 40.181C37.852 42.005 37.852 44.9608 35.9345 46.7876C34.017 48.6109 30.908 48.6109 28.9919 46.7876C27.0744 44.9608 27.0744 42.005 28.9919 40.181C29.4658 39.7307 30.0146 39.39 30.6002 39.162V22.4277C30.0146 22.1997 29.4671 21.8618 28.9919 21.4084C27.5396 20.0273 27.1902 17.9993 27.935 16.3024L20.671 9.39091L1.48954 27.6371C-0.121513 29.1713 -0.121513 31.6569 1.48954 33.1898L29.4644 59.8005C31.0749 61.3332 33.687 61.3332 35.2999 59.8005L63.1427 33.3131C64.7545 31.78 64.7545 29.2931 63.1427 27.7604Z" fill="black"/>
</svg>
