<svg width="65" height="61" viewBox="0 0 65 61" fill="none" xmlns="http://www.w3.org/2000/svg">
<path d="M0.268555 0L5.92191 54.5363L32.3042 60.9524L58.6865 54.5363C60.571 36.3581 62.4554 18.1782 64.3399 0H0.268555ZM4.38343 3.20802H60.225L55.1605 52.0583L32.3042 57.6159L9.44789 52.0583L4.38343 3.20802ZM18.2665 12.8321L16.4557 32.0802H40.9351L40.1622 40.1003L32.3042 41.0934L24.5419 40.1003L24.1996 36.8922H16.9268L17.6629 44.9123L32.2858 48.1203L46.9271 44.9123L48.7932 25.6642H24.9357L25.5393 19.2481H41.2922L41.7265 22.4561H48.6975L47.3798 12.8321H18.2665Z" fill="black"/>
</svg>
