<svg width="65" height="61" viewBox="0 0 65 61" fill="none" xmlns="http://www.w3.org/2000/svg">
<path d="M0 0V60.9524H64.0713V0H0ZM5.82467 5.54113H58.2467V55.4113H5.82467V5.54113ZM44.396 27.7056C40.2459 27.7056 37.5645 30.2328 37.5645 33.5768C37.5645 37.209 39.8034 38.9452 43.1787 40.3139L44.3448 40.79C46.4766 41.6849 47.7463 42.2072 47.7463 43.7338C47.7463 45.0221 46.5034 45.947 44.5667 45.947C42.2717 45.947 40.9666 44.7902 39.9706 43.2359L36.1539 45.3139C37.5081 47.8932 40.3295 49.8701 44.6747 49.8701C49.1015 49.8701 52.422 47.6858 52.422 43.6851C52.422 39.9476 50.1805 38.2871 46.1935 36.6829L45.0331 36.2067C43.0148 35.3645 42.1549 34.8117 42.1549 33.4957C42.1549 32.4152 43.0127 31.5747 44.396 31.5747C45.7532 31.5747 46.6069 32.127 47.4107 33.4957L51.0682 31.2608C49.5188 28.6814 47.3841 27.7056 44.396 27.7056ZM27.36 27.9708V43.1061C27.36 45.317 26.3633 45.8929 24.8402 45.8929C23.2355 45.8929 22.5448 44.8423 21.8254 43.6039L18.0087 45.79C19.1154 48.0287 21.297 49.8701 25.0335 49.8701C29.1836 49.8701 32.0357 47.7622 32.0357 43.1548V27.9708H27.36Z" fill="black"/>
</svg>
