<svg width="97" height="61" viewBox="0 0 97 61" fill="none" xmlns="http://www.w3.org/2000/svg">
<path d="M66.0372 0C65.5505 0 65.1047 0.389611 65.1047 0.931679V17.956L61.2416 15.7054C60.9997 15.563 60.7272 15.4937 60.4544 15.4937C60.1816 15.4937 59.909 15.563 59.6672 15.7054L50.3847 21.114C49.9011 21.3928 49.6036 21.9087 49.6036 22.4631V33.2924C49.6036 33.85 49.9011 34.3627 50.3847 34.6415L59.6672 40.0501C59.909 40.1926 60.1816 40.2618 60.4544 40.2618C60.7272 40.2618 60.9997 40.1926 61.2416 40.0501L70.5241 34.6415C71.0077 34.3627 71.3052 33.8469 71.3052 33.2924V27.8778V22.4631V3.81141C71.3052 3.26005 71.0105 2.75317 70.5362 2.47439L66.4974 0.127047C66.3455 0.0403163 66.1922 0 66.0372 0ZM35.6526 15.4937C35.3805 15.4937 35.1088 15.5645 34.8654 15.7054L25.5829 21.114C25.0993 21.3928 24.8018 21.9087 24.8018 22.4631V33.2924C24.8018 33.85 25.0993 34.3627 25.5829 34.6415L34.8654 40.0501C35.3522 40.332 35.953 40.332 36.4398 40.0501L45.7223 34.6415C46.2059 34.3627 46.5034 33.8469 46.5034 33.2924V22.4631C46.5034 21.9056 46.2059 21.3928 45.7223 21.114L36.4398 15.7054C36.1964 15.5645 35.9246 15.4937 35.6526 15.4937ZM85.2562 15.4937C84.9834 15.4937 84.7109 15.563 84.469 15.7054L75.1865 21.114C74.7029 21.3928 74.4054 21.9087 74.4054 22.4631V33.2924C74.4054 33.85 74.7029 34.3627 75.1865 34.6415L84.1905 40.0803C84.6741 40.3746 85.2811 40.3774 85.7709 40.0924L90.1972 37.5213C90.656 37.258 90.6591 36.5929 90.1972 36.3234L80.6059 30.6789V25.119L85.2562 22.4147L89.9065 25.119V28.9909C89.9065 29.5082 90.3417 29.5879 90.6332 29.4144C91.805 28.7268 95.338 26.6799 95.338 26.6799C95.8123 26.4042 96.107 25.8942 96.107 25.3429V22.4631C96.107 21.9056 95.8095 21.3928 95.3259 21.114L86.0434 15.7054C85.7984 15.563 85.529 15.4937 85.2562 15.4937ZM10.8508 15.4998C10.578 15.4998 10.3054 15.569 10.0636 15.7115L0.781111 21.114C0.297476 21.3959 0 21.9116 0 22.4692V36.2931C0 36.9684 0.73112 37.387 1.31396 37.0494L5.43145 34.6536C5.90578 34.3748 6.20045 33.868 6.20045 33.3166V25.1311L10.8508 22.4208L15.5011 25.1311V33.3166C15.5011 33.868 15.7958 34.3748 16.2701 34.6536L20.3876 37.0494C20.9705 37.3901 21.7016 36.9684 21.7016 36.2931V22.4692C21.7016 21.9116 21.4041 21.3959 20.9205 21.114L11.638 15.7115C11.3961 15.569 11.1236 15.4998 10.8508 15.4998ZM60.4544 22.4147L65.1047 25.1251V27.8778V30.6305L60.4544 33.3408L55.8041 30.6305V25.1251L60.4544 22.4147ZM85.2562 24.7923L82.598 26.3411V29.4326L85.2562 30.9753L87.9144 29.4326V26.3411L85.2562 24.7923ZM47.7628 37.1643C47.4439 37.1643 47.1215 37.2423 46.8425 37.4003L38.1231 42.4337C37.5495 42.7497 37.2027 43.3714 37.2027 44.0188V54.0737C37.2027 54.7211 37.565 55.3304 38.1231 55.6587L40.418 56.9655C41.5186 57.5076 41.9231 57.51 42.4222 57.51C44.0653 57.51 45.0017 56.5282 45.0017 54.7936V44.8597C45.0017 44.708 44.8838 44.5996 44.7474 44.5996H43.6454C43.4935 44.5996 43.385 44.7234 43.385 44.8597V54.7936C43.385 55.5463 42.5889 56.3182 41.2899 55.6708L38.9042 54.2975C38.8267 54.2511 38.771 54.1575 38.771 54.0676V44.0128C38.771 43.9229 38.8143 43.8172 38.9042 43.7708L47.6236 38.7494C47.7166 38.7029 47.8217 38.7029 47.8961 38.7494L56.6215 43.7708C56.7114 43.8172 56.7547 43.9074 56.7547 44.0128V54.0676C56.7547 54.173 56.6959 54.2632 56.6215 54.3096L47.8961 59.3492C47.8186 59.3956 47.698 59.3956 47.6236 59.3492L45.3953 58.0242C45.3364 57.9933 45.2423 57.9751 45.1834 58.0061C44.5664 58.3685 44.4429 58.4159 43.8694 58.6111C43.7175 58.6575 43.511 58.7506 43.9481 58.9922L46.8425 60.7104C47.1308 60.8622 47.4466 60.9524 47.7628 60.9524C48.0946 60.9524 48.4169 60.8625 48.6711 60.6983L57.3905 55.6587C57.964 55.3428 58.3109 54.7211 58.3109 54.0737V44.0188C58.3109 43.3714 57.9485 42.7652 57.3905 42.4337L48.6711 37.4003C48.3998 37.2423 48.0818 37.1643 47.7628 37.1643ZM61.3627 41.8046C60.4729 41.8046 59.6915 42.5234 59.6915 43.4743C59.6915 44.3943 60.4419 45.1501 61.3627 45.1501C62.2834 45.1501 63.0339 44.3943 63.0339 43.4743C63.0339 42.5234 62.2679 41.7891 61.3627 41.8046ZM61.3445 42.0708C62.132 42.0708 62.7675 42.6906 62.7675 43.4743C62.7675 44.2425 62.1289 44.8775 61.3445 44.896C60.5725 44.896 59.9458 44.258 59.9458 43.4743C59.9458 42.6906 60.5756 42.0708 61.3445 42.0708ZM60.7329 42.5245V44.406H61.0902V43.6558H61.4232C61.5596 43.6558 61.592 43.7138 61.623 43.8192C61.623 43.8347 61.6802 44.3222 61.6957 44.4121H62.0832C62.0398 44.3222 62.0079 44.0648 61.9924 43.9099C61.949 43.6683 61.9349 43.5019 61.6775 43.4864C61.8139 43.44 62.0408 43.3675 62.0408 43.0206C62.0408 42.5219 61.6071 42.5245 61.3808 42.5245H60.7329ZM61.0902 42.827H61.3929C61.4859 42.827 61.6654 42.824 61.6654 43.0811C61.6654 43.1864 61.6197 43.3564 61.3748 43.3533H61.0902V42.827ZM50.1001 44.3637C47.6106 44.3637 46.134 45.4238 46.134 47.1708C46.134 49.0851 47.6131 49.5972 49.9972 49.8388C52.8494 50.1238 53.0732 50.5335 53.0732 51.0911C53.0732 52.0699 52.2868 52.4765 50.4453 52.4765C48.1356 52.4765 47.6275 51.9044 47.4601 50.7584C47.4446 50.6376 47.3361 50.5466 47.1997 50.5466H46.0674C45.931 50.5466 45.8131 50.655 45.8131 50.8068C45.8131 52.2688 46.6107 54.0192 50.4271 54.0192C53.2266 54.0161 54.811 52.9325 54.811 51.0306C54.811 49.1473 53.5418 48.6464 50.857 48.284C48.1412 47.9216 47.8718 47.7392 47.8718 47.1042C47.8718 46.5777 48.0943 45.8882 50.1001 45.8882C51.8952 45.8882 52.5642 46.2804 52.837 47.4854C52.868 47.6062 52.9523 47.679 53.0732 47.679H54.2055C54.2799 47.679 54.3438 47.6497 54.3872 47.6064C54.4337 47.5475 54.4632 47.4871 54.4477 47.4128C54.2679 45.3312 52.8934 44.3637 50.1001 44.3637Z" fill="black"/>
</svg>
