<svg width="59" height="61" viewBox="0 0 59 61" fill="none" xmlns="http://www.w3.org/2000/svg">
<path d="M46.4376 18.1532C46.4173 18.4684 46.271 18.747 46.0494 18.9402L46.0474 18.9423C45.7812 19.2331 45.4255 19.4365 45.0231 19.5076L45.013 19.5097C44.9561 19.5178 44.889 19.5239 44.8219 19.5239H44.8138C44.1797 19.5239 43.6351 19.1395 43.4034 18.5884L43.3993 18.5782C43.3384 18.1288 44.07 17.7891 44.824 17.6834C45.578 17.5776 46.3766 17.7057 46.4376 18.1532ZM26.2977 19.1985C26.0518 19.831 25.4482 20.2723 24.741 20.2723C24.7329 20.2723 24.7268 20.2723 24.7186 20.2723H24.7207C24.6475 20.2723 24.5784 20.2662 24.5073 20.2581H24.5154C23.985 20.1625 23.5338 19.8696 23.2351 19.4609L23.231 19.4548C23.0644 19.2636 22.9627 19.0094 22.9627 18.7348V18.7328C22.9871 18.5762 23.0745 18.442 23.1964 18.3565L23.1985 18.3545C23.5074 18.1837 23.8773 18.084 24.2715 18.084C24.4402 18.084 24.6048 18.1023 24.7633 18.1369L24.7491 18.1349C25.5519 18.2467 26.381 18.627 26.3018 19.1985H26.2977ZM48.6894 34.7424L48.4719 34.4699L48.3825 34.358C49.3113 32.6375 49.8559 30.5895 49.8559 28.4174C49.8559 27.425 49.7421 26.461 49.5267 25.5336L49.5429 25.619C49.4007 24.6977 49.3173 23.6341 49.3173 22.5521C49.3173 22.5379 49.3173 22.5237 49.3173 22.5094C49.3641 21.4905 49.4718 20.5387 49.6385 19.6053L49.6181 19.7395C49.799 18.7958 49.9026 17.7098 49.9026 16.5994C49.9026 16.4957 49.9026 16.394 49.9006 16.2923V16.3086C49.925 16.2089 49.9392 16.097 49.9392 15.9791C49.9392 15.9242 49.9352 15.8713 49.9311 15.8184V15.8245C49.1182 12.6112 47.5919 9.82703 45.5251 7.54111L45.5393 7.55738C43.6879 5.38534 41.4118 3.63429 38.8328 2.42625L38.7109 2.37541C40.1253 2.07238 41.7512 1.89951 43.4176 1.89951C43.5701 1.89951 43.7225 1.90155 43.8749 1.90358H43.8526C43.944 1.90155 44.0497 1.89951 44.1574 1.89951C48.9902 1.89951 53.2945 4.15493 56.0787 7.67127L56.1031 7.70381C56.16 7.77702 56.2169 7.8604 56.2657 7.94786L56.2718 7.95802C58.109 11.4032 55.5707 23.9066 48.6873 34.7464L48.6894 34.7424ZM48.1081 16.9187C48.0756 17.844 47.9781 18.7206 47.8236 19.5768L47.8399 19.4649C47.6814 20.3293 47.5676 21.3583 47.5208 22.4037L47.5188 22.4545C47.5188 22.4891 47.5188 22.5277 47.5188 22.5684C47.5188 23.7215 47.6041 24.8543 47.7708 25.9607L47.7545 25.8366C47.9273 26.6034 48.0268 27.4819 48.0268 28.3869C48.0268 29.9387 47.7342 31.4233 47.1997 32.7839L47.2282 32.7025C47.0737 32.4361 46.9132 32.1148 46.7729 31.7813L46.7506 31.7223C46.6164 31.3989 46.3258 30.8762 45.9255 30.1563C44.3626 27.3497 40.7005 20.7787 42.5742 18.0983C43.5375 16.7194 45.9803 16.6604 48.1061 16.9207L48.1081 16.9187ZM46.6632 40.4796C46.5595 38.3665 47.346 38.1448 48.1793 37.9109C48.2944 37.8798 48.4089 37.8452 48.5227 37.8072C48.6243 37.8967 48.7361 37.9842 48.852 38.0614L48.8621 38.0675C50.1221 38.6228 51.5894 38.9441 53.134 38.9441C54.3371 38.9441 55.4935 38.7488 56.5746 38.3868L56.4974 38.4092C55.7983 39.0051 55.0016 39.5156 54.1399 39.9101L54.077 39.9366C52.7682 40.4735 51.25 40.809 49.6608 40.8599H49.6405C49.3986 40.8965 49.1202 40.9188 48.8377 40.9188C48.0533 40.9188 47.3054 40.7562 46.6286 40.4633L46.6652 40.4775L46.6632 40.4796ZM44.4013 44.5999C44.3586 45.0494 44.3098 45.5558 44.2448 46.1151L43.8749 47.2295C43.8465 47.3109 43.8302 47.4044 43.8282 47.5021C43.8302 47.557 43.8302 47.62 43.8302 47.6831C43.8302 48.405 43.7225 49.1047 43.5233 49.7616L43.5355 49.7107C43.2998 50.5018 43.1372 51.419 43.0823 52.3647L43.0803 52.3973C42.9746 55.8221 40.3265 58.5941 36.9672 58.893L36.9408 58.8951C33.0916 59.7208 32.4088 57.6321 31.8072 55.7896C31.7463 55.597 31.6812 55.4052 31.6121 55.214C31.287 53.888 31.1 52.3647 31.1 50.7988C31.1 50.0666 31.1406 49.3446 31.2199 48.6328L31.2118 48.7203C31.224 48.46 31.2301 48.1529 31.2301 47.8458C31.2301 45.7592 30.9171 43.7457 30.3338 41.8503L30.3724 41.9947C30.3833 41.249 30.3995 40.4938 30.4212 39.7291C30.4212 39.723 30.4212 39.7128 30.4212 39.7047C30.4212 39.6112 30.407 39.5217 30.3806 39.4363L30.3826 39.4424C30.3541 39.239 30.3155 39.06 30.2647 38.8871L30.2708 38.9136C29.9843 37.854 29.2628 36.9998 28.3117 36.5463L28.2893 36.5361C27.9317 36.3572 27.5089 36.2514 27.0598 36.2514C26.8485 36.2514 26.6432 36.2738 26.4461 36.3185L26.4644 36.3145C26.7245 35.3586 26.9927 34.5776 27.3017 33.817L27.2488 33.9655L27.3829 33.6055C27.5333 33.1988 27.7223 32.7778 27.9235 32.3324C29.0332 30.0465 29.6815 27.3599 29.6815 24.5208C29.6815 22.6132 29.3888 20.7747 28.8462 19.046L28.8807 19.1741C28.5088 16.9207 26.5741 15.2225 24.2451 15.2225C23.8793 15.2225 23.5216 15.2653 23.1802 15.3446L23.2127 15.3385C21.595 15.55 20.1318 16.0259 18.8006 16.7255L18.8718 16.6909C18.7038 16.7763 18.5378 16.8645 18.3738 16.9553C18.5588 12.5889 20.1948 8.63729 22.8063 5.53584L22.7819 5.56431C23.0217 5.3223 23.2737 5.09248 23.5338 4.87691L23.5521 4.86267C23.6923 4.8342 23.8163 4.77726 23.922 4.69794L23.9199 4.69997C25.7348 3.36991 28.013 2.57065 30.4781 2.57065C30.6752 2.57065 30.8703 2.57471 31.0634 2.58488L31.037 2.58285C32.106 2.59912 33.1384 2.67233 34.1545 2.80249L34.0183 2.78826C38.1703 3.58752 41.7146 5.76362 44.2448 8.81423L44.2671 8.8427C45.7873 10.61 47.0188 12.6804 47.8561 14.9399L47.9008 15.0802C47.3786 14.9399 46.779 14.8585 46.1612 14.8585C44.1635 14.8585 42.3649 15.7045 41.1008 17.057L41.0968 17.061C38.5767 20.6669 42.4767 27.667 44.3505 31.0308C44.6939 31.647 44.9906 32.1799 45.0841 32.4056C45.6125 33.6279 46.2771 34.6793 47.0757 35.6128L47.0615 35.5966C47.2383 35.8182 47.409 36.0318 47.5411 36.2189C46.523 36.5117 44.6939 37.191 44.8606 40.5833C44.8301 40.9799 44.7528 41.7181 44.6492 42.6536C44.5395 43.2007 44.45 43.8678 44.3992 44.545L44.3952 44.602L44.4013 44.5999ZM25.7002 32.9791L25.5661 33.3371C25.2877 34.0041 24.9991 34.8522 24.7593 35.7206L24.7207 35.8853C22.9058 35.8589 21.2759 35.082 20.1257 33.8496L20.1216 33.8455C18.8372 32.489 18.0487 30.6525 18.0487 28.631C18.0487 28.2283 18.0792 27.8338 18.1401 27.4474L18.134 27.4901C18.3312 26.0258 18.445 24.3357 18.445 22.6172C18.445 21.5963 18.4043 20.5855 18.3271 19.5849L18.3352 19.7171C18.323 19.4995 18.3108 19.3083 18.3048 19.1578C19.9407 17.9152 22.0116 17.1648 24.2573 17.1648C24.5256 17.1648 24.7898 17.1749 25.0519 17.1953L25.0174 17.1932C26.1433 17.4556 26.9907 18.3891 27.1248 19.5381L27.1269 19.5503C27.6106 21.0309 27.889 22.7352 27.889 24.5025C27.889 27.0772 27.2976 29.5136 26.2449 31.6857L26.2875 31.588C26.0742 32.0619 25.873 32.5093 25.7002 32.9751V32.9791ZM20.3817 43.1153C19.9651 43.0095 19.5993 42.855 19.266 42.6536L19.2843 42.6638C19.6339 42.5153 20.0464 42.3913 20.4732 42.312L20.5118 42.3059C23.7716 41.6347 24.2736 41.1609 25.373 39.7637C25.625 39.4444 25.9095 39.0804 26.3058 38.639C26.3871 38.5475 26.4522 38.4377 26.4908 38.3157L26.4928 38.3096C26.9257 37.9252 27.1838 38.0309 27.6024 38.2038C28.0638 38.458 28.4052 38.8871 28.5373 39.3976L28.5393 39.4118C28.5861 39.544 28.6145 39.6945 28.6145 39.8532C28.6145 40.1074 28.5434 40.3453 28.4214 40.5467L28.4255 40.5406C27.1147 42.3343 25.0194 43.4875 22.6559 43.4875C21.843 43.4875 21.0605 43.3512 20.3309 43.099L20.3817 43.1153ZM5.12541 30.1868C3.8024 26.1498 2.72529 21.3604 2.08918 16.4306L2.04651 16.0259C1.92254 15.371 1.85344 14.6165 1.85344 13.8477C1.85344 10.1748 3.45691 6.87811 6.00132 4.62066L6.01352 4.61049C10.6776 1.30973 18.3047 3.23568 21.5259 4.27899L21.5015 4.30339C18.382 8.11055 16.4899 13.0322 16.4899 18.3931C16.4899 18.5762 16.492 18.7592 16.496 18.9423V18.9158C16.496 19.1253 16.5123 19.4222 16.5367 19.829C16.6037 20.6628 16.6423 21.6349 16.6423 22.6172C16.6423 24.2483 16.5367 25.8549 16.3294 27.4311L16.3497 27.246C16.2826 27.665 16.246 28.149 16.246 28.6412C16.246 31.1447 17.2256 33.4204 18.825 35.1024L18.821 35.0983C19.0255 35.3125 19.2389 35.5138 19.4611 35.7023C18.5811 36.646 16.6667 38.7326 14.6304 41.1853C13.1895 42.92 12.1937 42.5865 11.8665 42.4787C10.4744 41.7303 9.38304 40.569 8.74084 39.1617L8.72255 39.117C7.33247 36.5707 6.10903 33.6096 5.2067 30.5102L5.12744 30.1909L5.12541 30.1868ZM58.9361 37.4208C58.8975 37.3049 58.8487 37.2052 58.7898 37.1137L58.7939 37.1198C58.4403 36.4507 57.5826 36.2514 56.2352 36.53C52.0365 37.3964 50.4107 36.8636 49.8214 36.4812C53.1075 31.4945 55.7516 25.7187 57.4444 19.5483L57.544 19.1233C58.233 16.453 59.5702 10.1687 57.855 7.09775C57.7351 6.86997 57.607 6.67474 57.4648 6.4917L57.4709 6.49983C54.2944 2.52387 49.4474 0 44.0111 0C43.8566 0 43.7022 0.00203378 43.5497 0.00610126H43.5721C43.4867 0.00406752 43.3872 0.00406743 43.2855 0.00406743C40.5582 0.00406743 37.9345 0.45149 35.4856 1.27515L35.6584 1.22431C35.2235 1.14296 34.7865 1.07381 34.3476 1.01687C33.3558 0.827732 32.2076 0.709775 31.0329 0.691472H31.0167C30.848 0.683337 30.6509 0.679269 30.4517 0.679269C27.7792 0.679269 25.2938 1.48056 23.2229 2.8574L23.2716 2.8269C21.0951 2.01137 11.1105 -1.35447 4.93031 3.02621C1.90425 5.60905 0 9.42639 0 13.6911C0 14.5148 0.0711298 15.3222 0.207293 16.1072L0.195099 16.0238C0.875913 21.5109 1.98147 26.4488 3.51178 31.1976L3.35123 30.62C4.35314 34.1099 5.59284 37.13 7.11501 39.9752L6.99104 39.723C7.87102 41.7242 9.3932 43.3105 11.2913 44.2481L11.3442 44.2725C11.6856 44.3721 12.0778 44.4311 12.4843 44.4311C13.9923 44.4311 15.3132 43.6359 16.053 42.4401L16.0631 42.4218C18.0975 39.9732 20.1013 37.7808 21.0016 36.8127C22.0218 37.3801 23.231 37.7299 24.5195 37.7706H24.5317L24.5337 37.7808C24.3196 38.0357 24.1103 38.2946 23.9057 38.5577C23.044 39.6518 22.8652 39.8776 20.0952 40.4491C19.3067 40.6118 17.2134 41.0429 17.1829 42.5113C17.1829 42.5194 17.1829 42.5275 17.1829 42.5377C17.1829 42.8367 17.2703 43.1153 17.4207 43.3492L17.4166 43.3431C18.0507 44.1464 18.9429 44.7219 19.9651 44.9457L19.9956 44.9518C20.8065 45.2161 21.7413 45.3687 22.7087 45.3687C24.9442 45.3687 26.9887 44.5592 28.5698 43.217L28.5576 43.2271C28.5088 44.0772 28.4824 45.0738 28.4824 46.0764C28.4824 49.6416 28.8299 53.1274 29.4904 56.4993L29.4355 56.1597C30.2119 58.952 32.7197 60.9736 35.7031 61H35.7072C36.4571 60.9939 37.1826 60.9064 37.8817 60.7478L37.8146 60.76C41.7146 60.4122 44.7874 57.2925 45.0638 53.3999L45.0658 53.3755C45.4479 51.1628 46.086 46.0683 46.4335 42.9526C46.4498 42.8204 46.5026 42.7024 46.5799 42.6048L46.5778 42.6068C46.5799 42.6048 46.7546 42.4869 47.6631 42.6841L47.7748 42.7024L48.4191 42.7594L48.4577 42.7614C48.6508 42.7696 48.8784 42.7757 49.106 42.7757C51.187 42.7757 53.1746 42.3689 54.9894 41.6286L54.8858 41.6652C56.5218 40.9066 59.4706 39.0417 58.9361 37.4208Z" fill="black"/>
</svg>
