<svg width="65" height="61" viewBox="0 0 65 61" fill="none" xmlns="http://www.w3.org/2000/svg">
<path fill-rule="evenodd" clip-rule="evenodd" d="M45.6381 0.00463729C44.5526 -0.0333951 43.4163 0.163803 42.2771 0.548645C39.9986 1.31833 37.611 2.81826 35.1608 4.89504C34.2005 5.70893 33.2316 6.63929 32.2593 7.62641C31.3085 6.66435 30.3595 5.75897 29.4204 4.96304C26.9721 2.88793 24.591 1.38742 22.3177 0.619479C20.0444 -0.148463 17.7824 -0.172259 15.9247 0.945317C14.067 2.06289 12.956 4.11441 12.4576 6.54973C11.9593 8.98506 12.0142 11.8852 12.5147 15.132C12.6886 16.2598 12.9366 17.4429 13.219 18.6482C12.1575 18.9834 11.1267 19.3359 10.1707 19.7249C7.28583 20.899 4.89875 22.3036 3.16047 23.975C1.4222 25.6464 0.299805 27.6749 0.299805 29.9024C0.299805 32.1299 1.4222 34.1556 3.16047 35.827C4.89875 37.4984 7.28583 38.9058 10.1707 40.0799C11.1929 40.4959 12.2996 40.8704 13.442 41.2246C13.0311 42.8244 12.6981 44.3769 12.4712 45.8486C11.9703 49.098 11.9173 51.9986 12.4169 54.4394C12.9164 56.8803 14.0279 58.9434 15.8948 60.0665C17.7617 61.1896 20.0338 61.162 22.3123 60.3923C24.5907 59.6227 26.9756 58.1256 29.4259 56.0488C30.3773 55.2424 31.3397 54.3225 32.3028 53.3457C33.2711 54.3284 34.2373 55.2526 35.1934 56.0629C37.6417 58.1381 40.0256 59.6357 42.2989 60.4037C44.5722 61.1716 46.8341 61.1954 48.6918 60.0778C50.5496 58.9603 51.6578 56.9087 52.1562 54.4734C52.6546 52.0381 52.5997 49.1408 52.0991 45.894C51.8716 44.4183 51.5384 42.8606 51.1256 41.2557C52.3058 40.893 53.4474 40.5083 54.5002 40.0799C57.3851 38.9058 59.7722 37.4984 61.5105 35.827C63.2487 34.1556 64.3711 32.1299 64.3711 29.9024C64.3711 27.6749 63.2487 25.6464 61.5105 23.975C59.7722 22.3036 57.3851 20.899 54.5002 19.7249C53.5306 19.3303 52.4839 18.9733 51.4057 18.6341C51.6904 17.4214 51.9432 16.2297 52.1181 15.0952C52.6191 11.8458 52.672 8.94242 52.1725 6.50156C51.673 4.06071 50.5588 2.00042 48.6918 0.877316C47.7584 0.315766 46.7236 0.0426697 45.6381 0.00463729ZM45.5103 2.95701C46.1915 2.97642 46.7726 3.14532 47.2697 3.44435C48.2638 4.04241 48.9987 5.20639 49.3907 7.12207C49.7827 9.03775 49.7692 11.626 49.3064 14.6277C49.148 15.6554 48.9179 16.7446 48.6565 17.8606C45.8086 17.1464 42.688 16.6165 39.362 16.305C37.6924 13.8949 35.9768 11.6992 34.2471 9.75144C35.162 8.82088 36.071 7.95056 36.9582 7.19857C39.2216 5.28015 41.3645 3.97476 43.1527 3.37069C44.0468 3.06865 44.8291 2.9376 45.5103 2.95701ZM19.0899 2.96551C19.775 2.94558 20.559 3.07627 21.4557 3.37919C23.2491 3.98501 25.3957 5.28981 27.6611 7.20991C28.5305 7.9468 29.4191 8.80056 30.3151 9.70894C28.5726 11.6727 26.8428 13.8874 25.162 16.3192C21.8502 16.6363 18.7422 17.1691 15.9084 17.8861C15.6489 16.7763 15.4188 15.6927 15.2612 14.6702C14.798 11.6659 14.7865 9.07728 15.1796 7.15607C15.5728 5.23487 16.3136 4.06211 17.317 3.45852C17.8186 3.15673 18.4048 2.98544 19.0899 2.96551ZM32.3028 11.8396C33.437 13.1257 34.5714 14.533 35.6965 16.0472C34.591 15.9992 33.472 15.9707 32.3355 15.9707C31.1763 15.9707 30.036 16.0001 28.9092 16.05C30.0345 14.5346 31.1684 13.1266 32.3028 11.8396ZM32.3355 18.9004C34.2288 18.9004 36.0742 18.9815 37.8692 19.1186C39.1043 20.967 40.3113 22.9279 41.4613 25.0035C42.4718 26.8272 43.3863 28.6482 44.2187 30.4464C43.3775 32.2685 42.4477 34.1141 41.4233 35.963C40.5214 37.5905 39.5797 39.1363 38.6224 40.6267C36.5948 40.8033 34.4939 40.9016 32.3355 40.9016C30.1251 40.9016 27.9769 40.7975 25.9044 40.6126C24.9631 39.1436 24.0372 37.6212 23.1498 36.0197C22.1276 34.175 21.2023 32.3328 20.3625 30.5144C21.2059 28.6858 22.1353 26.8334 23.1634 24.978C24.3074 22.9133 25.5109 20.9637 26.7392 19.1242C28.5535 18.9841 30.4203 18.9004 32.3355 18.9004ZM41.4532 19.4813C43.7483 19.7796 45.9032 20.1939 47.9087 20.6911C47.3136 22.7237 46.5806 24.8468 45.6925 27.0379C45.1158 25.8796 44.5186 24.7174 43.8733 23.5528C43.0913 22.1415 42.2768 20.7959 41.4532 19.4813ZM23.0682 19.5039C22.262 20.794 21.4686 22.1134 20.7024 23.4961C20.0489 24.6757 19.4392 25.8535 18.8561 27.0265C17.9756 24.8487 17.247 22.7376 16.6562 20.7166C18.6467 20.2185 20.7891 19.8057 23.0682 19.5039ZM50.6633 21.4618C51.6503 21.7729 52.6034 22.0976 53.4778 22.4535C56.1372 23.5358 58.2408 24.8174 59.6043 26.1283C60.9677 27.4393 61.5594 28.6895 61.5594 29.9024C61.5594 31.1153 60.9677 32.3655 59.6043 33.6765C58.2408 34.9874 56.1372 36.269 53.4778 37.3513C52.5062 37.7467 51.4387 38.1053 50.3288 38.445C49.5372 35.8936 48.5267 33.2318 47.3241 30.5144C48.7068 27.3946 49.8238 24.3529 50.6633 21.4618ZM13.9614 21.4759C14.7913 24.3382 15.894 27.3497 17.2571 30.4379C16.0466 33.1711 15.0311 35.848 14.236 38.4139C13.1653 38.0831 12.134 37.7342 11.1932 37.3513C8.53374 36.269 6.4301 34.9874 5.06668 33.6765C3.70325 32.3655 3.11152 31.1153 3.11152 29.9024C3.11152 28.6895 3.70325 27.4393 5.06668 26.1283C6.4301 24.8174 8.53374 23.5358 11.1932 22.4535C12.054 22.1031 12.9912 21.783 13.9614 21.4759ZM32.3355 23.2383C28.5073 23.2383 25.3741 26.503 25.3741 30.4917C25.3741 34.4805 28.5073 37.7452 32.3355 37.7452C36.1636 37.7452 39.2968 34.4805 39.2968 30.4917C39.2968 26.503 36.1636 23.2383 32.3355 23.2383ZM18.8887 33.923C19.4744 35.1018 20.0836 36.2848 20.7405 37.4703C21.2545 38.398 21.7794 39.3009 22.3123 40.1875C20.4425 39.9174 18.6652 39.5754 16.9961 39.1704C17.5269 37.4765 18.1619 35.7183 18.8887 33.923ZM45.7278 33.923C46.4576 35.7225 47.0929 37.4836 47.6259 39.1817C45.9515 39.5862 44.1687 39.9271 42.2934 40.1961C42.8332 39.2985 43.3663 38.3843 43.8869 37.4448C44.539 36.268 45.1458 35.0932 45.7278 33.923ZM16.1939 41.9867C18.7137 42.6087 21.4448 43.0865 24.3408 43.3978C26.2741 46.3113 28.2881 48.9293 30.3151 51.2179C29.4087 52.1387 28.5103 53.0029 27.6311 53.7481C25.3677 55.6665 23.2222 56.9691 21.4339 57.5731C19.6457 58.1772 18.3111 58.0975 17.317 57.4995C16.3228 56.9014 15.5907 55.7374 15.1987 53.8217C14.8066 51.9061 14.8175 49.3206 15.2802 46.319C15.4902 44.9573 15.8039 43.4991 16.1939 41.9867ZM48.4308 41.9981C48.824 43.5197 49.1387 44.9832 49.3499 46.353C49.8131 49.3572 49.8246 51.9459 49.4315 53.8671C49.0383 55.7883 48.3029 56.9639 47.2996 57.5675C46.2962 58.1711 44.9488 58.2498 43.1554 57.644C41.362 57.0381 39.2154 55.7333 36.9501 53.8132C36.0646 53.0627 35.16 52.1915 34.2471 51.2632C36.2876 48.9657 38.3159 46.3343 40.2621 43.4034C43.1655 43.0942 45.9042 42.6193 48.4308 41.9981ZM27.9738 43.6953C29.4033 43.7764 30.8517 43.8313 32.3355 43.8313C33.7702 43.8313 35.1716 43.7797 36.5558 43.7038C35.1408 45.6929 33.6985 47.5013 32.262 49.1297C30.8264 47.4978 29.3869 45.6862 27.9738 43.6953Z" fill="black"/>
</svg>
