<svg width="29" height="28" viewBox="0 0 29 28" fill="none" xmlns="http://www.w3.org/2000/svg">
<path fill-rule="evenodd" clip-rule="evenodd" d="M14.512 0C6.48724 0 0 6.41664 0 14.3549C0 20.7004 4.1566 26.0717 9.9229 27.9728C10.6438 28.1157 10.9079 27.6639 10.9079 27.2838C10.9079 26.9511 10.8841 25.8104 10.8841 24.6218C6.84726 25.4776 6.00661 22.9106 6.00661 22.9106C5.35786 21.247 4.39661 20.8194 4.39661 20.8194C3.07534 19.94 4.49286 19.94 4.49286 19.94C5.95849 20.0351 6.72755 21.4135 6.72755 21.4135C8.02476 23.5998 10.1151 22.9821 10.956 22.6017C11.076 21.6748 11.4607 21.0332 11.8692 20.6767C8.64945 20.344 5.26191 19.1082 5.26191 13.5942C5.26191 12.0257 5.83819 10.7423 6.75132 9.74425C6.60725 9.38784 6.10256 7.91405 6.89568 5.94152C6.89568 5.94152 8.121 5.56119 10.8839 7.41501C12.0667 7.10079 13.2866 6.94094 14.512 6.9396C15.7373 6.9396 16.9864 7.10614 18.1399 7.41501C20.903 5.56119 22.1283 5.94152 22.1283 5.94152C22.9214 7.91405 22.4165 9.38784 22.2724 9.74425C23.2096 10.7423 23.7621 12.0257 23.7621 13.5942C23.7621 19.1082 20.3745 20.32 17.1308 20.6767C17.6595 21.1282 18.1158 21.9837 18.1158 23.3385C18.1158 25.2635 18.092 26.8084 18.092 27.2836C18.092 27.6639 18.3564 28.1157 19.077 27.9731C24.8433 26.0714 28.9999 20.7004 28.9999 14.3549C29.0237 6.41664 22.5127 0 14.512 0Z" fill="#222222"/>
</svg>
