<svg width="28" height="28" viewBox="0 0 28 28" fill="none" xmlns="http://www.w3.org/2000/svg">
<path d="M20.464 0.0726471C19.5007 0.225866 18.4991 0.636271 17.7109 1.19442C17.2621 1.51727 12.0898 6.56253 11.9092 6.85802C11.7669 7.08785 11.7888 7.25201 11.9694 7.43806C12.1172 7.58033 12.1664 7.59675 12.5058 7.59675C13.3049 7.59675 14.301 7.77733 15.1111 8.06735C15.7843 8.30812 15.5873 8.43945 17.7766 6.26156C18.8439 5.19998 19.8236 4.26426 19.9495 4.18218C21.0113 3.52553 22.4289 3.65686 23.3539 4.49956C24.3337 5.40245 24.5252 6.9784 23.7808 8.09471C23.5345 8.46681 17.3442 14.6448 17.0158 14.8472C16.0142 15.4656 14.7115 15.3945 13.7975 14.6721C12.8178 13.9061 12.1993 13.7747 11.3947 14.1578C10.9951 14.3548 10.7105 14.6448 10.519 15.0552C10.3876 15.3452 10.3766 15.4273 10.3985 15.8486C10.4314 16.4396 10.5901 16.7898 11.0389 17.2167C11.8873 18.0375 13.0148 18.623 14.2244 18.8747C14.717 18.9732 14.9031 18.9841 15.642 18.9568C17.1581 18.9021 18.0612 18.6284 19.1997 17.8678C19.7853 17.4793 26.512 10.7541 26.8788 10.1905C28.2033 8.16037 28.362 5.73624 27.3166 3.63497C26.3697 1.71974 24.5362 0.390028 22.4289 0.0671749C21.805 -0.0258503 21.088 -0.0203781 20.464 0.0726471Z" fill="#222222"/>
<path d="M11.2957 9.10146C10.4199 9.26562 9.58251 9.61584 8.75604 10.1521C8.33459 10.4202 1.7228 17.0031 1.29041 17.5777C0.901802 18.0976 0.420148 19.0606 0.261422 19.6352C-0.170972 21.2057 -0.0669785 22.705 0.573402 24.1497C1.18642 25.5232 2.47265 26.8091 3.84646 27.422C5.59245 28.199 7.50812 28.1935 9.27053 27.4001C10.1955 26.9842 10.513 26.7106 13.4467 23.7721C16.1724 21.0415 16.2052 21.0087 16.1669 20.8281C16.1067 20.4943 15.9589 20.4232 15.2255 20.3849C14.3881 20.3411 13.7532 20.2262 13.0198 19.9909C12.6968 19.8869 12.3739 19.7994 12.3028 19.7994C12.2042 19.7994 11.6679 20.2973 10.201 21.7638C9.01328 22.9403 8.12113 23.783 7.9624 23.8761C7.52454 24.1278 7.07572 24.2427 6.52839 24.2482C5.73476 24.2536 5.10532 23.9964 4.55252 23.4438C3.99971 22.8911 3.74794 22.2782 3.74794 21.4683C3.74246 20.8774 3.88477 20.4068 4.19675 19.9252C4.47589 19.5039 10.71 13.2985 11.0439 13.1125C11.1807 13.0359 11.4599 12.921 11.6624 12.8498C11.9798 12.7459 12.1221 12.7294 12.5928 12.7513C13.4029 12.7896 13.6492 12.8936 14.6016 13.6269C15.0066 13.9388 15.2638 14.0263 15.8057 14.0263C16.572 14.0209 17.2342 13.5721 17.5024 12.8717C17.6666 12.4285 17.6393 11.843 17.4258 11.4107C17.0262 10.5899 15.4773 9.57206 14.0706 9.19996C13.3865 9.02485 11.9908 8.97561 11.2957 9.10146Z" fill="#222222"/>
</svg>
