<svg width="36" height="27" viewBox="0 0 36 27" fill="none" xmlns="http://www.w3.org/2000/svg">
<path d="M32.4013 0H3.5987C1.62006 0 0.0172805 1.51867 0.0172805 3.37551L0 23.6245C0 25.4813 1.62006 27 3.5987 27H32.4013C34.3799 27 36 25.4813 36 23.6245V3.37551C36 1.51867 34.3799 0 32.4013 0ZM31.6798 7.17219L18.9548 14.6319C18.6677 14.7976 18.3371 14.8854 18 14.8854C17.6629 14.8854 17.3323 14.7976 17.0452 14.6319L4.32017 7.17219C4.14219 7.07602 3.9867 6.94723 3.86298 6.79349C3.73927 6.63975 3.64986 6.46422 3.6001 6.27738C3.55034 6.09054 3.54125 5.89621 3.57336 5.70601C3.60548 5.5158 3.67814 5.33361 3.78702 5.1703C3.8959 5.007 4.03876 4.86593 4.20708 4.75552C4.37539 4.64511 4.56571 4.56762 4.76668 4.52768C4.96764 4.48773 5.17513 4.48615 5.37676 4.52303C5.57839 4.5599 5.77003 4.63448 5.94024 4.74231L18 11.8133L30.0598 4.74231C30.23 4.63448 30.4216 4.5599 30.6232 4.52303C30.8249 4.48615 31.0324 4.48773 31.2333 4.52768C31.4343 4.56762 31.6246 4.64511 31.7929 4.75552C31.9612 4.86593 32.1041 5.007 32.213 5.1703C32.3219 5.33361 32.3945 5.5158 32.4266 5.70601C32.4588 5.89621 32.4497 6.09054 32.3999 6.27738C32.3501 6.46422 32.2607 6.63975 32.137 6.79349C32.0133 6.94723 31.8578 7.07602 31.6798 7.17219Z" fill="white"/>
</svg>
