<svg width="83" height="83" viewBox="0 0 83 83" fill="none" xmlns="http://www.w3.org/2000/svg">
<path d="M41.5 83C64.4196 83 83 64.4196 83 41.5C83 18.5802 64.4196 0 41.5 0C18.5802 0 0 18.5802 0 41.5C0 64.4196 18.5802 83 41.5 83Z" fill="#D3C8C1"/>
<path d="M22.1691 48V20.1H24.9141V47.55H28.5141C36.9291 47.55 38.7291 45.615 41.2041 42.465L38.9541 48H22.1691Z" fill="#2F2D2B"/>
<path d="M52.3027 65.045C56.7127 65.045 60.5827 61.85 64.0927 56.765L64.0027 60.005C61.3927 63.425 56.8477 65.315 52.3027 65.315C42.5377 65.315 37.6327 59.375 37.6327 51.05C37.6327 42.5 43.3477 36.785 52.8877 36.785C57.8377 36.785 62.3827 38.765 64.3627 42.5L63.1477 46.64C62.1577 40.925 59.9077 37.055 52.5277 37.055C44.4277 37.055 40.3777 43.04 40.3777 51.14C40.3777 58.88 43.9777 65.045 52.3027 65.045Z" fill="#2F2D2B"/>
</svg>
