<svg width="16" height="16" viewBox="0 0 16 16" fill="none" xmlns="http://www.w3.org/2000/svg">
<g clip-path="url(#clip0_233_1232)">
<path d="M7.99992 14.6666C11.6818 14.6666 14.6666 11.6818 14.6666 7.99992C14.6666 4.31802 11.6818 1.33325 7.99992 1.33325C4.31802 1.33325 1.33325 4.31802 1.33325 7.99992C1.33325 11.6818 4.31802 14.6666 7.99992 14.6666Z" stroke="#2F2D2B" stroke-linecap="square"/>
<path d="M7.99992 14.6666C9.7777 13.0504 10.6666 10.8282 10.6666 7.99992C10.6666 5.17164 9.7777 2.94941 7.99992 1.33325C6.22214 2.94941 5.33325 5.17164 5.33325 7.99992C5.33325 10.8282 6.22214 13.0504 7.99992 14.6666Z" stroke="#2F2D2B" stroke-width="0.8" stroke-linecap="round"/>
<path d="M1.66675 6H14.3334M1.66675 10H14.3334" stroke="#2F2D2B" stroke-width="0.8" stroke-linecap="round"/>
</g>
<defs>
<clipPath id="clip0_233_1232">
<rect width="16" height="16" fill="white"/>
</clipPath>
</defs>
</svg>
