<svg width="30" height="30" viewBox="0 0 30 30" fill="none" xmlns="http://www.w3.org/2000/svg">
<g clip-path="url(#clip0_218_348)">
<path d="M6.98347 9.63916H0.960922C0.693631 9.63916 0.477051 9.85632 0.477051 10.1241V29.5146C0.477051 29.7825 0.693631 29.9996 0.960922 29.9996H6.98347C7.25076 29.9996 7.46734 29.7825 7.46734 29.5146V10.1241C7.46734 9.85632 7.25076 9.63916 6.98347 9.63916Z" fill="white"/>
<path d="M3.97413 0C1.78277 0 0 1.78477 0 3.97853C0 6.17326 1.78277 7.9587 3.97413 7.9587C6.16374 7.9587 7.94506 6.17316 7.94506 3.97853C7.94516 1.78477 6.16374 0 3.97413 0Z" fill="white"/>
<path d="M22.3018 9.15771C19.8829 9.15771 18.0948 10.1998 17.0103 11.384V10.1246C17.0103 9.8568 16.7937 9.63965 16.5264 9.63965H10.7588C10.4915 9.63965 10.2749 9.8568 10.2749 10.1246V29.5151C10.2749 29.783 10.4915 30.0001 10.7588 30.0001H16.7682C17.0355 30.0001 17.252 29.783 17.252 29.5151V19.9213C17.252 16.6884 18.1282 15.4289 20.3769 15.4289C22.8258 15.4289 23.0205 17.448 23.0205 20.0876V29.5152C23.0205 29.7831 23.237 30.0001 23.5043 30.0001H29.5159C29.7832 30.0001 29.9998 29.7831 29.9998 29.5152V18.8792C29.9998 14.072 29.0852 9.15771 22.3018 9.15771Z" fill="white"/>
</g>
<defs>
<clipPath id="clip0_218_348">
<rect width="30" height="30" fill="white"/>
</clipPath>
</defs>
</svg>
